<svg version="1.1" xmlns="http://www.w3.org/2000/svg" width="100.00000pt" height="60.000000pt" viewBox="0 0 220.000000 135.000000" preserveAspectRatio="xMidYMid meet">
<g transform="translate(0.000000,135.000000) scale(0.100000,-0.100000)" fill="#fafafa" stroke="none">
<path d="M1621 1227 c-14 -40 -26 -47 -85 -47 -33 0 -48 6 -70 29 l-27 28 -55 -20 -56 -20 7 -42 c5 -40 4 -44 -30 -70 -34 -25 -39 -26 -81 -16 -53 13 -53 14 -88 -38 l-28 -40 31 -28 c29 -27 30 -29 19 -70 -11 -38 -16 -44 -48 -49 -60 -10 -60 -10 -60 -68 l0 -54 46 -8 c43 -8 47 -12 61 -53 l15 -43 -33 -28 -33 -27 29 -39 c17 -21 32 -41 35 -46 3 -4 27 -1 52 7 43 12 48 12 63 -5 10 -11 26 -22 36 -25 15 -5 18 -15 16 -53 l-2 -46 54 -20 54 -20 27 31 c25 28 31 30 79 25 49 -4 53 -7 72 -44 19 -38 22 -40 57 -34 96 17 92 15 92 55 0 35 2 38 50 55 49 18 50 18 85 -4 34 -21 37 -21 63 -5 15 10 37 27 49 38 l22 20 -19 27 c-25 35 -25 36 6 77 22 29 30 33 74 33 l48 0 16 47 c9 26 16 50 16 54 0 4 -18 14 -40 23 -38 15 -40 18 -40 61 0 42 2 46 40 65 36 18 40 23 34 48 -4 15 -13 39 -20 53 -11 22 -18 25 -57 22 -41 -3 -47 -1 -72 33 l-29 37 22 37 21 37 -48 35 -47 36 -38 -23 c-36 -22 -39 -22 -87 -6 -47 15 -49 18 -49 53 0 20 -4 39 -10 43 -5 3 -36 8 -68 11 l-60 6 -11 -35z m102 -302 c70 -33 111 -117 93 -189 -14 -56 -88 -115 -164 -129 -77 -15 -185 36 -216 101 -41 84 -4 175 87 218 61 29 139 29 200 -1z"/>
<path d="M576 966 c-12 -30 -19 -34 -67 -40 -52 -7 -54 -6 -79 24 l-26 32 -60 -24 c-32 -13 -58 -28 -58 -34 1 -5 5 -23 8 -40 6 -28 3 -33 -33 -58 -37 -26 -43 -27 -76 -16 -46 15 -58 10 -92 -41 l-27 -41 31 -29 32 -28 -15 -44 c-14 -42 -18 -45 -60 -52 l-44 -6 0 -59 0 -59 44 -6 c42 -7 46 -10 60 -52 l15 -44 -31 -28 -31 -28 21 -35 c35 -56 44 -61 91 -47 38 11 43 10 81 -16 45 -31 43 -28 31 -73 -9 -31 -8 -33 27 -51 71 -35 80 -36 111 -1 27 31 30 32 80 25 48 -6 54 -10 67 -41 13 -31 18 -34 57 -34 72 0 86 8 93 51 6 35 12 42 52 59 l45 20 39 -25 39 -26 49 39 48 38 -20 36 -21 36 28 36 c24 32 33 36 71 36 48 0 58 10 69 70 6 33 4 36 -32 55 -36 19 -38 23 -37 65 1 41 4 47 38 65 40 21 42 33 17 98 -9 24 -16 27 -55 27 -38 0 -47 4 -71 36 l-28 36 22 38 21 38 -50 36 -51 36 -36 -24 -36 -25 -46 18 c-41 17 -47 23 -54 59 -9 44 -22 52 -94 52 -39 0 -44 -3 -57 -34z m132 -245 c98 -50 145 -119 145 -212 1 -178 -231 -296 -409 -208 -83 42 -144 130 -144 209 0 101 89 201 205 231 49 13 159 2 203 -20z"/>
<path d="M498 720 c-114 -34 -189 -139 -171 -240 18 -106 125 -189 244 -190 239 -1 351 250 171 387 -23 18 -59 37 -80 43 -43 12 -125 12 -164 0z m184 -61 c20 -10 49 -35 65 -56 23 -30 28 -46 28 -93 0 -47 -5 -63 -28 -93 -110 -145 -367 -80 -367 92 0 137 166 219 302 150z"/>
</g>
</svg>
